<svg xmlns="http://www.w3.org/2000/svg" viewBox="0 0 200 200" role="img" aria-labelledby="title desc">
  <title id="title">CatSpy Shield Logo</title>
  <desc id="desc">Shield emblem with a cat face in the center, inspired by the CatSpy brand.</desc>
  <defs>
    <linearGradient id="shield-grad" x1="50%" y1="0%" x2="50%" y2="100%">
      <stop offset="0%" stop-color="#4cc0ff"/>
      <stop offset="100%" stop-color="#2490ff"/>
    </linearGradient>
    <linearGradient id="inner-grad" x1="50%" y1="0%" x2="50%" y2="100%">
      <stop offset="0%" stop-color="#7ee6ff" stop-opacity="0.95"/>
      <stop offset="100%" stop-color="#55c4ff"/>
    </linearGradient>
  </defs>
  <rect fill="none" width="200" height="200" rx="24"/>
  <path d="M100 10c-1.1 0-2.1 0.24-3.1 0.72l-63 29c-2.4 1.1-4 3.5-4 6.2v56c0 51.6 34.9 83.3 68.2 95.9 1.8 0.67 3.8 0.67 5.6 0 33.3-12.6 68.2-44.3 68.2-95.9v-56c0-2.7-1.6-5.1-4-6.2l-63-29C102.1 10.24 101.1 10 100 10z" fill="#123a7b"/>
  <path d="M100 24.6 44 51v50.4c0 43.5 29.1 71.7 56 82.7 26.9-11 56-39.2 56-82.7V51L100 24.6z" fill="#f6b92c"/>
  <path d="M100 34.6 54 56.5v44.2c0 37.9 25.3 62.1 46 71 20.7-8.9 46-33.1 46-71V56.5L100 34.6z" fill="url(#shield-grad)"/>
  <path d="M100 47.6 65 63.8v34.4c0 29.9 19.9 49 35 55.5 15.1-6.5 35-25.6 35-55.5V63.8L100 47.6z" fill="url(#inner-grad)"/>
  <g fill="#083263">
    <circle cx="76" cy="118" r="6"/>
    <circle cx="124" cy="118" r="6"/>
    <path d="M100 144c-7.2 0-13-5.8-13-13h6c0 3.9 3.1 7 7 7s7-3.1 7-7h6c0 7.2-5.8 13-13 13z"/>
    <path d="M82 92c-3.2 0-5.9-2.4-6.2-5.6l-1.7-18.6-9 7.2c-1.3 1.1-3.3 0.85-4.4-0.44-1.1-1.29-0.94-3.25 0.39-4.37l14.9-12.5c2.1-1.8 5.4-0.36 5.6 2.5l2.1 23.6c0.21 2.36-1.64 4.41-4.07 4.61-0.13 0.01-0.26 0.02-0.38 0.02zm36 0c-0.12 0-0.25-0.01-0.38-0.02-2.43-0.2-4.28-2.25-4.07-4.61l2.1-23.6c0.25-2.83 3.52-4.32 5.59-2.47l14.9 12.5c1.33 1.12 1.5 3.08 0.39 4.37-1.11 1.29-3.06 1.5-4.4 0.44l-9-7.2-1.7 18.6c-0.32 3.2-3 5.6-6.2 5.6z"/>
  </g>
  <g stroke-linecap="round" stroke-width="6">
    <path d="M30 84v18" stroke="#20a3ff"/>
    <path d="M172 84v18" stroke="#ff8a26"/>
    <path d="M46 126v18" stroke="#20a3ff"/>
    <path d="M156 126v18" stroke="#ff8a26"/>
    <path d="M52 74v10" stroke="#ff5a7a"/>
    <path d="M148 74v10" stroke="#20a3ff"/>
  </g>
</svg>
